<svg fill="#000" xmlns="http://www.w3.org/2000/svg" width="48" height="48" viewBox="0 0 48 48">
  <path d="M26.2,35.77C25.94,36.74,25,37,24,37s-1.94-.22-2.2-1.19a36.58,36.58,0,0,1-1-6.72c0-1.78,1.58-2.21,3.24-2.21s3.24.43,3.24,2.21a36.85,36.85,0,0,1-1,6.72Z"/>
  <path d="M20.6,25.65a4.86,4.86,0,1,1,6.8,0,.3.3,0,0,0,0,.46,3.53,3.53,0,0,1,1.08,1.29.29.29,0,0,0,.47.09,7.29,7.29,0,1,0-10,0,.29.29,0,0,0,.47-.09,3.53,3.53,0,0,1,1.08-1.29.3.3,0,0,0,0-.46Z"/><path d="M24,11a11.34,11.34,0,0,0-5,21.54.31.31,0,0,0,.43-.32c-.12-.79-.22-1.57-.28-2.25a.29.29,0,0,0-.13-.23,8.9,8.9,0,1,1,9.78.09c0,.71-.16,1.54-.29,2.39a.31.31,0,0,0,.43.32A11.34,11.34,0,0,0,24,11Z"/>
  <circle cx="24" cy="22.38" r="3.24"/>
</svg>
